<?xml version="1.0" standalone="no"?>
<!DOCTYPE svg PUBLIC "-//W3C//DTD SVG 20010904//EN"
 "http://www.w3.org/TR/2001/REC-SVG-20010904/DTD/svg10.dtd">
<svg version="1.0" xmlns="http://www.w3.org/2000/svg"
 width="1024.000000pt" height="1536.000000pt" viewBox="0 0 1024.000000 1536.000000"
 preserveAspectRatio="xMidYMid meet">

<g transform="translate(0.000000,1536.000000) scale(0.100000,-0.100000)"
fill="#1e40af" stroke="none">
<path d="M1593 9155 c-173 -55 -316 -210 -352 -383 -15 -74 -15 -1830 0 -1904
38 -182 185 -334 370 -383 82 -22 1898 -22 1982 0 177 46 315 175 367 343 19
62 20 95 20 992 0 894 -1 930 -20 991 -48 158 -180 291 -338 339 -62 19 -93
20 -1026 19 -770 -1 -969 -4 -1003 -14z m2015 -219 c60 -33 101 -76 134 -139
l23 -42 3 -920 c2 -858 1 -923 -15 -969 -24 -65 -81 -128 -145 -160 l-52 -26
-775 0 -776 0 195 195 196 196 43 -16 c63 -22 159 -19 228 6 69 26 145 98 175
166 28 63 34 164 14 228 l-16 50 163 162 162 163 49 -15 c205 -62 411 78 424
289 6 103 -22 172 -102 251 -69 69 -131 95 -222 95 -173 0 -327 -156 -327
-330 0 -38 7 -81 17 -104 l16 -39 -137 -141 c-75 -78 -146 -151 -158 -164
l-21 -22 -59 21 c-95 34 -218 14 -310 -49 -48 -33 -100 -108 -116 -165 -15
-57 -7 -174 16 -217 l18 -35 -273 -267 c-301 -294 -274 -277 -366 -238 -60 26
-110 74 -141 138 l-28 57 -3 253 -3 252 263 266 c145 146 315 315 379 375 113
106 118 109 145 98 16 -6 63 -12 104 -12 61 -1 86 4 131 25 76 35 133 88 166
156 24 49 28 69 28 142 0 101 -28 173 -91 234 -92 90 -230 120 -346 76 -71
-26 -145 -92 -178 -156 -22 -43 -25 -62 -25 -149 0 -75 4 -108 17 -131 l17
-30 -305 -305 -304 -304 2 530 3 530 24 50 c34 68 97 128 162 153 54 21 63 21
989 19 l935 -2 53 -29z m-1183 -390 c45 -48 52 -95 25 -152 -25 -51 -62 -74
-117 -74 -104 0 -167 116 -110 201 29 43 60 59 121 59 43 0 53 -4 81 -34z
m961 -311 c114 -75 61 -240 -77 -238 -107 2 -165 107 -106 194 43 65 122 84
183 44z m-776 -760 c56 -29 79 -106 52 -169 -38 -86 -154 -103 -219 -32 -28
31 -33 43 -33 87 0 48 3 55 40 91 35 32 47 38 86 38 25 0 58 -7 74 -15z"/>
<path d="M4590 8198 l0 -883 635 0 635 0 0 163 0 162 -460 0 -460 0 0 200 0
200 405 0 405 0 0 160 0 160 -405 0 -405 0 0 200 0 200 460 0 460 0 0 160 0
160 -635 0 -635 0 0 -882z"/>
<path d="M6070 8920 l0 -160 260 0 260 0 0 -722 0 -723 175 0 175 0 0 723 0
722 260 0 260 0 0 160 0 160 -695 0 -695 0 0 -160z"/>
<path d="M7690 8920 l0 -160 336 0 335 0 -167 -187 c-93 -104 -183 -205 -202
-226 l-33 -39 3 -98 3 -99 170 -5 c243 -5 315 -32 368 -135 51 -102 31 -223
-49 -289 -141 -117 -432 -89 -608 58 -26 22 -51 40 -55 40 -15 -1 -183 -241
-178 -254 20 -50 211 -160 354 -202 119 -35 311 -44 433 -20 339 66 535 358
465 689 -38 182 -171 308 -385 362 -36 9 -67 18 -68 20 -2 2 70 86 159 187 90
101 182 205 206 232 l43 48 0 119 0 119 -565 0 -565 0 0 -160z"/>
<path d="M4725 6981 c-97 -25 -147 -108 -111 -183 19 -40 67 -70 159 -98 73
-23 92 -39 83 -73 -12 -48 -99 -61 -175 -27 -24 11 -46 20 -50 20 -7 0 -41
-53 -41 -65 0 -3 26 -18 57 -32 45 -21 72 -26 128 -26 119 1 185 50 185 138 0
75 -41 114 -157 148 -79 24 -93 34 -93 67 0 19 7 33 21 40 30 17 99 14 144 -4
21 -9 39 -15 39 -14 1 2 9 19 18 40 l17 36 -40 16 c-48 20 -142 28 -184 17z"/>
<path d="M5253 6980 c-136 -32 -220 -176 -179 -307 35 -110 126 -175 247 -174
146 0 252 101 252 241 0 74 -26 132 -81 180 -66 59 -153 81 -239 60z m130 -94
c115 -49 124 -225 14 -283 -73 -38 -171 -12 -211 57 -27 46 -26 131 1 168 49
66 124 89 196 58z"/>
<path d="M7583 6980 c-154 -36 -235 -209 -164 -348 43 -84 123 -133 220 -134
75 -1 133 18 180 59 112 95 113 267 3 363 -66 59 -153 81 -239 60z m137 -98
c53 -26 80 -74 80 -142 0 -74 -28 -117 -93 -144 -42 -18 -53 -19 -95 -8 -180
47 -148 308 38 311 19 1 51 -7 70 -17z"/>
<path d="M8686 6975 c-106 -38 -134 -158 -52 -223 15 -11 62 -33 106 -47 43
-14 84 -32 90 -40 18 -21 8 -58 -20 -73 -34 -18 -122 -9 -166 17 l-34 20 -20
-40 -21 -40 58 -26 c95 -44 238 -32 284 23 23 28 36 86 28 122 -12 54 -47 81
-150 116 -88 29 -94 33 -97 61 -3 19 2 33 14 42 24 18 106 16 151 -2 20 -8 37
-14 38 -13 14 21 26 71 19 78 -15 14 -115 40 -153 40 -20 -1 -54 -7 -75 -15z"/>
<path d="M5705 6740 l0 -240 153 0 152 0 0 45 0 45 -100 0 -100 0 0 195 0 195
-52 0 -53 0 0 -240z"/>
<path d="M6130 6813 c0 -142 3 -174 19 -209 63 -140 284 -147 361 -12 23 40
25 53 28 216 l4 172 -50 0 -51 0 -3 -164 c-3 -149 -5 -167 -24 -193 -42 -57
-144 -49 -173 13 -7 15 -11 86 -11 184 l0 160 -50 0 -50 0 0 -167z"/>
<path d="M6650 6934 l0 -45 71 2 71 2 -2 -196 -1 -197 56 0 56 0 -3 195 -3
195 73 0 72 0 0 45 0 45 -195 0 -195 0 0 -46z"/>
<path d="M7170 6740 l0 -240 50 0 50 0 0 240 0 240 -50 0 -50 0 0 -240z"/>
<path d="M8030 6740 l0 -240 50 0 50 0 0 151 0 151 122 -151 c119 -147 123
-151 160 -151 l38 0 0 240 0 240 -45 0 -44 0 -3 -147 -3 -147 -119 147 -118
147 -44 0 -44 0 0 -240z"/>
</g>
</svg>
